<svg xmlns="http://www.w3.org/2000/svg" viewBox="32 355 562 96" xml:space="preserve"><g fill="#FFF"><path d="m248.9 404.6-2.3-7.2h-11l-2.5 7.2H223l12.6-36.8h13.3l12.8 36.8h-12.8zm-11.1-15.2h6.6l-3.3-10.7-3.3 10.7zM298.2 367.9l-12.8 21.2v15.6h-12.2v-15.6l-13.8-21.2h13.8l7.2 12.1 6.9-12.1h10.9zM322.3 404.6l-2.3-7.2h-11l-2.5 7.2h-10.2l12.6-36.8h13.3l12.8 36.8h-12.7zm-11.2-15.2h6.6l-3.3-10.7-3.3 10.7zM388.6 383.1l10.6 1.1c-1.3 5-3.6 8.8-6.8 11.4.9.7 2.2 1 3.9 1 .8 0 1.7-.1 2.9-.2v7.9c-1.7.4-3.3.6-4.9.6-3.7 0-6.9-1-9.6-3-2.7 2.1-6.7 3.2-11.8 3.2-4.8 0-8.7-1-11.8-3-3.1-2-4.6-4.8-4.6-8.4 0-4.8 3.2-8.1 9.5-10.1-2.2-2.5-3.3-4.9-3.3-7.2 0-2.8 1.2-5.1 3.6-6.8 2.4-1.7 5.7-2.5 9.8-2.5 3.9 0 7.1.8 9.4 2.4 2.4 1.6 3.6 3.8 3.6 6.6 0 2.3-.8 4.3-2.3 5.9-1.6 1.6-3.4 2.6-5.4 3.2l4.2 4c1.3-1 2.3-3.1 3-6.1zm-17.1 6c-2 .8-2.9 2.1-2.9 4 0 1.2.5 2.2 1.4 3 .9.8 2.2 1.1 3.8 1.1 1.9 0 3.5-.5 4.6-1.5l-6.9-6.6zm5-9c2-.7 3-1.8 3-3.4 0-.8-.3-1.4-.8-2-.6-.5-1.3-.8-2.3-.8-.8 0-1.5.2-2.1.7-.5.4-.8 1-.8 1.6 0 1.2 1 2.4 3 3.9zM460.6 404.6h-13.8l-7.1-13.9-4.2 5.4v8.5h-11.9v-36.8h11.9V383l11.3-15.2h11.3l-10.3 13.5 12.8 23.3zM482.3 405.2c-5.8 0-10.5-1.7-14.1-5.1-3.6-3.4-5.4-8-5.4-13.8 0-5.5 1.7-10 5.2-13.6 3.5-3.6 8.3-5.4 14.4-5.4 5.7 0 10.3 1.7 13.9 5.1 3.6 3.4 5.4 7.9 5.4 13.5 0 5.8-1.8 10.5-5.4 14-3.6 3.5-8.2 5.3-14 5.3zm0-8.3c2.1 0 3.6-.8 4.6-2.5.9-1.7 1.4-4.7 1.4-9.1 0-6.4-1.9-9.6-5.7-9.6-4.1 0-6.2 3.6-6.2 10.9-.1 6.8 1.9 10.3 5.9 10.3zM531.8 390.6l11.5.6c-.5 4.5-2.4 8-5.6 10.4-3.2 2.4-7.1 3.6-11.7 3.6-5.6 0-10.1-1.7-13.5-5-3.4-3.3-5.1-7.9-5.1-13.7 0-5.8 1.6-10.4 4.9-14 3.2-3.5 7.8-5.3 13.6-5.3 5.4 0 9.6 1.3 12.5 4 2.9 2.7 4.6 6.3 4.9 10.7l-11.7.6c0-2.5-.5-4.2-1.6-5.3-1-1.1-2.3-1.6-3.7-1.6-4 0-5.9 3.6-5.9 10.7 0 4 .5 6.7 1.5 8.2s2.5 2.2 4.3 2.2c3.3 0 5.2-2 5.6-6.1zM584.8 367.9v36.8h-12.6v-14.3h-9.6v14.3H550v-36.8h12.6v13.5h9.6v-13.5h12.6zM225.6 440.6v-29H242c3.4 0 5.9.8 7.4 2.3 1.6 1.5 2.3 3.3 2.3 5.3 0 1.4-.5 2.7-1.4 3.9-.9 1.2-2.3 2-4.1 2.4 4.2.9 6.3 3.2 6.3 6.7 0 2.2-.7 4.1-2.2 5.8-1.5 1.7-4.6 2.5-9.4 2.5h-15.3zm9.1-17.9h4.6c1.2 0 2-.3 2.4-.8.5-.5.7-1.1.7-1.7 0-1.6-1.1-2.4-3.3-2.4h-4.4v4.9zm0 11.4h4.8c1.2 0 2.1-.3 2.6-.8.6-.5.8-1.1.8-1.8s-.3-1.3-.8-1.8c-.5-.6-1.5-.8-3-.8h-4.5v5.2zM268.3 411.6v29h-9.9v-29h9.9zM299.9 433.7v6.9h-24.3v-29h24.3v6.7h-14.6v4.2h11.8v6.4h-11.8v4.7h14.6zM333.1 440.6H325l-8.8-12.8c-1.1-1.6-2.3-3.6-3.4-6 .5 1.9.8 3.5.8 4.8v14h-8v-29h9.4l7.5 10.6c1.5 2.1 2.6 4 3.4 5.6-.5-2.5-.8-5-.8-7.6v-8.6h8.1v29zM364.7 433.7v6.9h-24.3v-29h24.3v6.7h-14.6v4.2h11.8v6.4h-11.8v4.7h14.6zM367 432.2l9.2-1.5c.8 2.3 2.8 3.5 6 3.5 2.5 0 3.7-.6 3.7-1.8 0-.6-.3-1.1-.9-1.5-.6-.3-1.6-.7-3.1-.9-5.7-1-9.3-2.2-10.9-3.8-1.6-1.6-2.4-3.4-2.4-5.5 0-2.7 1.2-5 3.5-6.8 2.3-1.8 5.6-2.7 10-2.7 6.6 0 10.9 2.4 13 7.1l-8.2 2.2c-.9-1.9-2.6-2.9-5.2-2.9-2.2 0-3.2.6-3.2 1.8 0 .5.2 1 .7 1.3.5.3 1.4.6 2.8.8 3.9.7 6.6 1.4 8.2 1.9 1.6.6 3 1.5 4.1 2.9 1.1 1.4 1.6 3 1.6 4.8 0 2.9-1.3 5.3-4 7.1-2.6 1.8-6.1 2.7-10.4 2.7-7.8.1-12.7-2.8-14.5-8.7zM444 440.6h-11l-4.7-11.1h-3.1v11.1h-9.9v-29h16.9c3.7 0 6.6.8 8.7 2.3 2.1 1.6 3.1 3.6 3.1 6.2 0 1.7-.4 3.1-1.1 4.4-.8 1.3-2.3 2.4-4.6 3.4l5.7 12.7zm-18.9-17.3h4.2c1.2 0 2.2-.2 3-.7.8-.5 1.1-1.2 1.1-2.1 0-1.9-1.3-2.8-3.8-2.8H425v5.6zM468.1 440.6l-1.8-5.7h-8.6l-1.9 5.7h-8l10-29h10.5l10.1 29h-10.3zm-8.8-12h5.2l-2.6-8.4-2.6 8.4zM492.8 411.2v29.4h-9.9v-29.4h9.9zM517.9 429.5l9.1.5c-.4 3.6-1.9 6.3-4.4 8.2s-5.6 2.8-9.2 2.8c-4.4 0-7.9-1.3-10.6-3.9-2.7-2.6-4-6.2-4-10.8 0-4.5 1.3-8.2 3.8-11 2.6-2.8 6.1-4.2 10.7-4.2 4.3 0 7.6 1.1 9.8 3.2 2.3 2.1 3.6 4.9 3.9 8.4l-9.2.4c0-1.9-.4-3.3-1.2-4.2-.8-.9-1.8-1.3-2.9-1.3-3.1 0-4.7 2.8-4.7 8.4 0 3.2.4 5.3 1.2 6.4.8 1.1 2 1.7 3.4 1.7 2.5.2 4-1.4 4.3-4.6zM556.5 433.7v6.9h-24.3v-29h24.3v6.7H542v4.2h11.8v6.4H542v4.7h14.5zM558.8 432.2l9.2-1.5c.8 2.3 2.8 3.5 6 3.5 2.5 0 3.7-.6 3.7-1.8 0-.6-.3-1.1-.9-1.5-.6-.3-1.6-.7-3.1-.9-5.7-1-9.3-2.2-10.9-3.8-1.6-1.6-2.4-3.4-2.4-5.5 0-2.7 1.2-5 3.5-6.8 2.3-1.8 5.6-2.7 10-2.7 6.6 0 10.9 2.4 13 7.1l-8.2 2.2c-.9-1.9-2.6-2.9-5.2-2.9-2.2 0-3.2.6-3.2 1.8 0 .5.2 1 .7 1.3.5.3 1.4.6 2.8.8 3.9.7 6.6 1.4 8.2 1.9 1.6.6 3 1.5 4.1 2.9 1.1 1.4 1.6 3 1.6 4.8 0 2.9-1.3 5.3-4 7.1-2.6 1.8-6.1 2.7-10.4 2.7-7.8.1-12.6-2.8-14.5-8.7zM62.6 421.3h-8.7l56.8-53.4h8.7zM93.1 421.3H73.3l56.8-53.4h19.8zM126 401.2h8.6v7.3H126zM140.2 401.2h8.6v7.3h-8.6zM126 412.8h8.6v7.3H126zM140.2 412.8h8.6v7.3h-8.6zM213.9 438.2s-.7-.2-2-.5-3.2-.7-5.6-1.1c-4.9-.9-11.8-1.9-20.1-2.5-4.2-.3-8.7-.6-13.5-.6-4.8-.1-9.8 0-15 .2-2.6.1-5.2.3-7.9.5-1.3.1-2.7.2-4 .3-1.3.1-2.7.3-4 .4-1.4.1-2.7.3-4.1.5-1.4.2-2.7.4-4.1.5-2.7.3-5.4.8-8.1 1.3l-4.1.7c-1.4.2-2.7.5-4 .8l-2 .4c-.7.1-1.4.3-2.1.4-.7.1-1.4.3-2.1.4-.7.1-1.4.3-2.1.4-.7.1-1.4.3-2.2.4l-2.1.3-2.1.3c-.7.1-1.4.2-2.1.2-2.8.3-5.6.6-8.4.7-5.5.3-10.9.1-16-.3-5.1-.5-9.8-1.4-14.1-2.6-2.1-.6-4.1-1.2-6-2-1.8-.7-3.6-1.4-5.1-2.2-3.1-1.5-5.6-3.1-7.6-4.5s-3.3-2.6-4.2-3.5c-.5-.4-.8-.8-1-1l-.3-.3s.6.3 1.7.9c1.1.6 2.8 1.4 5 2.4 2.2.9 4.9 2 8.1 2.9 3.2.9 6.8 1.7 10.9 2.3 2 .3 4.1.5 6.3.7 1.1.1 2.2.1 3.3.2 1.1 0 2.3.1 3.5.1 4.7 0 9.6-.2 14.7-.8 2.5-.3 5.1-.6 7.7-1.1.6-.1 1.3-.2 1.9-.3.6-.1 1.3-.2 2-.4.7-.1 1.3-.2 2-.4.6-.1 1.3-.3 1.9-.4.7-.1 1.3-.3 2-.4.7-.2 1.4-.3 2-.5l2-.4 2.1-.5c2.8-.6 5.7-1.2 8.5-1.7 2.9-.5 5.7-.9 8.6-1.3l2.2-.3c.7-.1 1.4-.1 2.2-.2 1.4-.1 2.9-.3 4.3-.4 1.4-.1 2.9-.2 4.3-.3 1.4-.1 2.8-.1 4.2-.2 2.8-.1 5.6-.1 8.3 0 5.5.1 10.7.5 15.7 1 5 .6 9.6 1.3 13.8 2.2 4.2.9 8 1.9 11.4 2.9 3.3 1 6.2 2 8.4 3 2.3.9 4 1.7 5.2 2.3 1.2.8 1.8 1.1 1.8 1.1z"/></g></svg>