<?xml version="1.0" encoding="utf-8"?>
<!-- Generator: Adobe Illustrator 18.0.0, SVG Export Plug-In . SVG Version: 6.00 Build 0)  -->
<!DOCTYPE svg PUBLIC "-//W3C//DTD SVG 1.1//EN" "http://www.w3.org/Graphics/SVG/1.1/DTD/svg11.dtd">
<svg version="1.1" xmlns="http://www.w3.org/2000/svg" xmlns:xlink="http://www.w3.org/1999/xlink" x="0px" y="0px"
	 viewBox="32 355 562 96" enable-background="new 32 355 562 96" xml:space="preserve">
<g id="Capa_2" display="none">
	<rect display="inline" fill="#EA0F0F" width="612" height="792"/>
</g>
<g id="Capa_1">
	<g>
		<path fill="#FFFFFF" d="M248.9,404.6l-2.3-7.2h-11l-2.5,7.2H223l12.6-36.8h13.3l12.8,36.8H248.9z M237.8,389.4h6.6l-3.3-10.7
			L237.8,389.4z"/>
		<path fill="#FFFFFF" d="M298.2,367.9l-12.8,21.2v15.6h-12.2v-15.6l-13.8-21.2h13.8l7.2,12.1l6.9-12.1H298.2z"/>
		<path fill="#FFFFFF" d="M322.3,404.6l-2.3-7.2h-11l-2.5,7.2h-10.2l12.6-36.8h13.3l12.8,36.8H322.3z M311.1,389.4h6.6l-3.3-10.7
			L311.1,389.4z"/>
		<path fill="#FFFFFF" d="M388.6,383.1l10.6,1.1c-1.3,5-3.6,8.8-6.8,11.4c0.9,0.7,2.2,1,3.9,1c0.8,0,1.7-0.1,2.9-0.2v7.9
			c-1.7,0.4-3.3,0.6-4.9,0.6c-3.7,0-6.9-1-9.6-3c-2.7,2.1-6.7,3.2-11.8,3.2c-4.8,0-8.7-1-11.8-3c-3.1-2-4.6-4.8-4.6-8.4
			c0-4.8,3.2-8.1,9.5-10.1c-2.2-2.5-3.3-4.9-3.3-7.2c0-2.8,1.2-5.1,3.6-6.8c2.4-1.7,5.7-2.5,9.8-2.5c3.9,0,7.1,0.8,9.4,2.4
			c2.4,1.6,3.6,3.8,3.6,6.6c0,2.3-0.8,4.3-2.3,5.9c-1.6,1.6-3.4,2.6-5.4,3.2l4.2,4C386.9,388.2,387.9,386.1,388.6,383.1z
			 M371.5,389.1c-2,0.8-2.9,2.1-2.9,4c0,1.2,0.5,2.2,1.4,3c0.9,0.8,2.2,1.1,3.8,1.1c1.9,0,3.5-0.5,4.6-1.5L371.5,389.1z
			 M376.5,380.1c2-0.7,3-1.8,3-3.4c0-0.8-0.3-1.4-0.8-2c-0.6-0.5-1.3-0.8-2.3-0.8c-0.8,0-1.5,0.2-2.1,0.7c-0.5,0.4-0.8,1-0.8,1.6
			C373.5,377.4,374.5,378.6,376.5,380.1z"/>
		<path fill="#FFFFFF" d="M460.6,404.6h-13.8l-7.1-13.9l-4.2,5.4v8.5h-11.9v-36.8h11.9v15.2l11.3-15.2h11.3l-10.3,13.5L460.6,404.6z
			"/>
		<path fill="#FFFFFF" d="M482.3,405.2c-5.8,0-10.5-1.7-14.1-5.1c-3.6-3.4-5.4-8-5.4-13.8c0-5.5,1.7-10,5.2-13.6
			c3.5-3.6,8.3-5.4,14.4-5.4c5.7,0,10.3,1.7,13.9,5.1c3.6,3.4,5.4,7.9,5.4,13.5c0,5.8-1.8,10.5-5.4,14
			C492.7,403.4,488.1,405.2,482.3,405.2z M482.3,396.9c2.1,0,3.6-0.8,4.6-2.5c0.9-1.7,1.4-4.7,1.4-9.1c0-6.4-1.9-9.6-5.7-9.6
			c-4.1,0-6.2,3.6-6.2,10.9C476.3,393.4,478.3,396.9,482.3,396.9z"/>
		<path fill="#FFFFFF" d="M531.8,390.6l11.5,0.6c-0.5,4.5-2.4,8-5.6,10.4c-3.2,2.4-7.1,3.6-11.7,3.6c-5.6,0-10.1-1.7-13.5-5
			c-3.4-3.3-5.1-7.9-5.1-13.7c0-5.8,1.6-10.4,4.9-14c3.2-3.5,7.8-5.3,13.6-5.3c5.4,0,9.6,1.3,12.5,4c2.9,2.7,4.6,6.3,4.9,10.7
			l-11.7,0.6c0-2.5-0.5-4.2-1.6-5.3c-1-1.1-2.3-1.6-3.7-1.6c-4,0-5.9,3.6-5.9,10.7c0,4,0.5,6.7,1.5,8.2s2.5,2.2,4.3,2.2
			C529.5,396.7,531.4,394.7,531.8,390.6z"/>
		<path fill="#FFFFFF" d="M584.8,367.9v36.8h-12.6v-14.3h-9.6v14.3H550v-36.8h12.6v13.5h9.6v-13.5H584.8z"/>
		<path fill="#FFFFFF" d="M225.6,440.6v-29H242c3.4,0,5.9,0.8,7.4,2.3c1.6,1.5,2.3,3.3,2.3,5.3c0,1.4-0.5,2.7-1.4,3.9
			c-0.9,1.2-2.3,2-4.1,2.4c4.2,0.9,6.3,3.2,6.3,6.7c0,2.2-0.7,4.1-2.2,5.8c-1.5,1.7-4.6,2.5-9.4,2.5H225.6z M234.7,422.7h4.6
			c1.2,0,2-0.3,2.4-0.8c0.5-0.5,0.7-1.1,0.7-1.7c0-1.6-1.1-2.4-3.3-2.4h-4.4V422.7z M234.7,434.1h4.8c1.2,0,2.1-0.3,2.6-0.8
			c0.6-0.5,0.8-1.1,0.8-1.8s-0.3-1.3-0.8-1.8c-0.5-0.6-1.5-0.8-3-0.8h-4.5V434.1z"/>
		<path fill="#FFFFFF" d="M268.3,411.6v29h-9.9v-29H268.3z"/>
		<path fill="#FFFFFF" d="M299.9,433.7v6.9h-24.3v-29h24.3v6.7h-14.6v4.2h11.8v6.4h-11.8v4.7H299.9z"/>
		<path fill="#FFFFFF" d="M333.1,440.6H325l-8.8-12.8c-1.1-1.6-2.3-3.6-3.4-6c0.5,1.9,0.8,3.5,0.8,4.8v14h-8v-29h9.4l7.5,10.6
			c1.5,2.1,2.6,4,3.4,5.6c-0.5-2.5-0.8-5-0.8-7.6v-8.6h8.1V440.6z"/>
		<path fill="#FFFFFF" d="M364.7,433.7v6.9h-24.3v-29h24.3v6.7h-14.6v4.2h11.8v6.4h-11.8v4.7H364.7z"/>
		<path fill="#FFFFFF" d="M367,432.2l9.2-1.5c0.8,2.3,2.8,3.5,6,3.5c2.5,0,3.7-0.6,3.7-1.8c0-0.6-0.3-1.1-0.9-1.5
			c-0.6-0.3-1.6-0.7-3.1-0.9c-5.7-1-9.3-2.2-10.9-3.8c-1.6-1.6-2.4-3.4-2.4-5.5c0-2.7,1.2-5,3.5-6.8c2.3-1.8,5.6-2.7,10-2.7
			c6.6,0,10.9,2.4,13,7.1l-8.2,2.2c-0.9-1.9-2.6-2.9-5.2-2.9c-2.2,0-3.2,0.6-3.2,1.8c0,0.5,0.2,1,0.7,1.3c0.5,0.3,1.4,0.6,2.8,0.8
			c3.9,0.7,6.6,1.4,8.2,1.9c1.6,0.6,3,1.5,4.1,2.9c1.1,1.4,1.6,3,1.6,4.8c0,2.9-1.3,5.3-4,7.1c-2.6,1.8-6.1,2.7-10.4,2.7
			C373.7,441,368.8,438.1,367,432.2z"/>
		<path fill="#FFFFFF" d="M444,440.6h-11l-4.7-11.1h-3.1v11.1h-9.9v-29h16.9c3.7,0,6.6,0.8,8.7,2.3c2.1,1.6,3.1,3.6,3.1,6.2
			c0,1.7-0.4,3.1-1.1,4.4c-0.8,1.3-2.3,2.4-4.6,3.4L444,440.6z M425.1,423.3h4.2c1.2,0,2.2-0.2,3-0.7c0.8-0.5,1.1-1.2,1.1-2.1
			c0-1.9-1.3-2.8-3.8-2.8h-4.6V423.3z"/>
		<path fill="#FFFFFF" d="M468.1,440.6l-1.8-5.7h-8.6l-1.9,5.7h-8l10-29h10.5l10.1,29H468.1z M459.3,428.6h5.2l-2.6-8.4L459.3,428.6
			z"/>
		<path fill="#FFFFFF" d="M492.8,411.2v29.4h-9.9v-29.4H492.8z"/>
		<path fill="#FFFFFF" d="M517.9,429.5l9.1,0.5c-0.4,3.6-1.9,6.3-4.4,8.2s-5.6,2.8-9.2,2.8c-4.4,0-7.9-1.3-10.6-3.9
			c-2.7-2.6-4-6.2-4-10.8c0-4.5,1.3-8.2,3.8-11c2.6-2.8,6.1-4.2,10.7-4.2c4.3,0,7.6,1.1,9.8,3.2c2.3,2.1,3.6,4.9,3.9,8.4l-9.2,0.4
			c0-1.9-0.4-3.3-1.2-4.2c-0.8-0.9-1.8-1.3-2.9-1.3c-3.1,0-4.7,2.8-4.7,8.4c0,3.2,0.4,5.3,1.2,6.4c0.8,1.1,2,1.7,3.4,1.7
			C516.1,434.3,517.6,432.7,517.9,429.5z"/>
		<path fill="#FFFFFF" d="M556.5,433.7v6.9h-24.3v-29h24.3v6.7H542v4.2h11.8v6.4H542v4.7H556.5z"/>
		<path fill="#FFFFFF" d="M558.8,432.2l9.2-1.5c0.8,2.3,2.8,3.5,6,3.5c2.5,0,3.7-0.6,3.7-1.8c0-0.6-0.3-1.1-0.9-1.5
			c-0.6-0.3-1.6-0.7-3.1-0.9c-5.7-1-9.3-2.2-10.9-3.8c-1.6-1.6-2.4-3.4-2.4-5.5c0-2.7,1.2-5,3.5-6.8c2.3-1.8,5.6-2.7,10-2.7
			c6.6,0,10.9,2.4,13,7.1l-8.2,2.2c-0.9-1.9-2.6-2.9-5.2-2.9c-2.2,0-3.2,0.6-3.2,1.8c0,0.5,0.2,1,0.7,1.3c0.5,0.3,1.4,0.6,2.8,0.8
			c3.9,0.7,6.6,1.4,8.2,1.9c1.6,0.6,3,1.5,4.1,2.9c1.1,1.4,1.6,3,1.6,4.8c0,2.9-1.3,5.3-4,7.1c-2.6,1.8-6.1,2.7-10.4,2.7
			C565.5,441,560.7,438.1,558.8,432.2z"/>
	</g>
	<g>
		<polygon fill="#FFFFFF" points="62.6,421.3 53.9,421.3 110.7,367.9 119.4,367.9 		"/>
		<polygon fill="#FFFFFF" points="93.1,421.3 73.3,421.3 130.1,367.9 149.9,367.9 		"/>
		<rect x="126" y="401.2" fill="#FFFFFF" width="8.6" height="7.3"/>
		<rect x="140.2" y="401.2" fill="#FFFFFF" width="8.6" height="7.3"/>
		<rect x="126" y="412.8" fill="#FFFFFF" width="8.6" height="7.3"/>
		<rect x="140.2" y="412.8" fill="#FFFFFF" width="8.6" height="7.3"/>
		<path fill="#FFFFFF" d="M213.9,438.2c0,0-0.7-0.2-2-0.5c-1.3-0.3-3.2-0.7-5.6-1.1c-4.9-0.9-11.8-1.9-20.1-2.5
			c-4.2-0.3-8.7-0.6-13.5-0.6c-4.8-0.1-9.8,0-15,0.2c-2.6,0.1-5.2,0.3-7.9,0.5c-1.3,0.1-2.7,0.2-4,0.3c-1.3,0.1-2.7,0.3-4,0.4
			c-1.4,0.1-2.7,0.3-4.1,0.5c-1.4,0.2-2.7,0.4-4.1,0.5c-2.7,0.3-5.4,0.8-8.1,1.3l-4.1,0.7c-1.4,0.2-2.7,0.5-4,0.8l-2,0.4
			c-0.7,0.1-1.4,0.3-2.1,0.4c-0.7,0.1-1.4,0.3-2.1,0.4c-0.7,0.1-1.4,0.3-2.1,0.4c-0.7,0.1-1.4,0.3-2.2,0.4c-0.7,0.1-1.4,0.2-2.1,0.3
			c-0.7,0.1-1.4,0.2-2.1,0.3c-0.7,0.1-1.4,0.2-2.1,0.2c-2.8,0.3-5.6,0.6-8.4,0.7c-5.5,0.3-10.9,0.1-16-0.3
			c-5.1-0.5-9.8-1.4-14.1-2.6c-2.1-0.6-4.1-1.2-6-2c-1.8-0.7-3.6-1.4-5.1-2.2c-3.1-1.5-5.6-3.1-7.6-4.5c-2-1.4-3.3-2.6-4.2-3.5
			c-0.5-0.4-0.8-0.8-1-1c-0.2-0.2-0.3-0.3-0.3-0.3s0.6,0.3,1.7,0.9c1.1,0.6,2.8,1.4,5,2.4c2.2,0.9,4.9,2,8.1,2.9
			c3.2,0.9,6.8,1.7,10.9,2.3c2,0.3,4.1,0.5,6.3,0.7c1.1,0.1,2.2,0.1,3.3,0.2c1.1,0,2.3,0.1,3.5,0.1c4.7,0,9.6-0.2,14.7-0.8
			c2.5-0.3,5.1-0.6,7.7-1.1c0.6-0.1,1.3-0.2,1.9-0.3c0.6-0.1,1.3-0.2,2-0.4c0.7-0.1,1.3-0.2,2-0.4c0.6-0.1,1.3-0.3,1.9-0.4
			c0.7-0.1,1.3-0.3,2-0.4c0.7-0.2,1.4-0.3,2-0.5l2-0.4l2.1-0.5c2.8-0.6,5.7-1.2,8.5-1.7c2.9-0.5,5.7-0.9,8.6-1.3l2.2-0.3
			c0.7-0.1,1.4-0.1,2.2-0.2c1.4-0.1,2.9-0.3,4.3-0.4c1.4-0.1,2.9-0.2,4.3-0.3c1.4-0.1,2.8-0.1,4.2-0.2c2.8-0.1,5.6-0.1,8.3,0
			c5.5,0.1,10.7,0.5,15.7,1c5,0.6,9.6,1.3,13.8,2.2c4.2,0.9,8,1.9,11.4,2.9c3.3,1,6.2,2,8.4,3c2.3,0.9,4,1.7,5.2,2.3
			C213.3,437.9,213.9,438.2,213.9,438.2z"/>
	</g>
</g>
</svg>
